# xmcd CD database file
#
# Track frame offsets:
#	150
#	6793
#	23511
#	38291
#	51610
#	67465
#	82549
#	111082
#	116189
#	140669
#	146030
#	163253
#	177367
#	193477
#	213730
#	219172
#
# Disc length: 3223 seconds
#
# Revision: 1
# Processed by: cddbd v1.5.2PL0 Copyright (c) Steve Scherf et al.
# Submitted via: CDex 1.51
#
DISCID=f10c9510
DTITLE=Juni Fisher - Gone For Colorado
DYEAR=2008
DGENRE=Country
TTITLE0=Sedakia, Colorado: Never Knew
TTITLE1=Gone for Colorado
TTITLE2=Goin' Somewhere
TTITLE3=Long Way from Missoura
TTITLE4=Railroad Corral
TTITLE5=Sedalia, Colorado: Family Secret
TTITLE6=Lilac Blue Eyes
TTITLE7=Sedalia, Colorado - On Jarre Creek
TTITLE8=Emma
TTITLE9=Sedalia, Colorado: Ada Dow
TTITLE10=Waitin' for Spring
TTITLE11=Colorado Trail
TTITLE12=Wild New Mexico Cowgirl
TTITLE13=Range Delivery
TTITLE14=Sedalia, Colorado - The Story That I Tell
TTITLE15=Whippoorwill
EXTD=YEAR: 2008
EXTT0=
EXTT1=
EXTT2=
EXTT3=
EXTT4=
EXTT5=
EXTT6=
EXTT7=
EXTT8=
EXTT9=
EXTT10=
EXTT11=
EXTT12=
EXTT13=
EXTT14=
EXTT15=
PLAYORDER=
